Coordinates
version=1
nRows=5
nColumns=40
inDegrees=yes

Units are S.I. units (second, meters, Newtons, ...)
Angles are in degrees.

endheader
time	pelvis_tilt	pelvis_list	pelvis_rotation	pelvis_tx	pelvis_ty	pelvis_tz	hip_flexion_r	hip_adduction_r	hip_rotation_r	knee_angle_r	knee_angle_r_beta	ankle_angle_r	subtalar_angle_r	mtp_angle_r	hip_flexion_l	hip_adduction_l	hip_rotation_l	knee_angle_l	knee_angle_l_beta	ankle_angle_l	subtalar_angle_l	mtp_angle_l	lumbar_extension	lumbar_bending	lumbar_rotation	arm_flex_r	arm_add_r	arm_rot_r	elbow_flex_r	pro_sup_r	wrist_flex_r	wrist_dev_r	arm_flex_l	arm_add_l	arm_rot_l	elbow_flex_l	pro_sup_l	wrist_flex_l	wrist_dev_l
     28.58000000	     -3.78297698	     -4.33464265	     -3.27887849	      1.12363578	      0.92369039	      0.49169453	     20.09127719	      0.63035925	    -11.39471644	     22.21317113	     22.21317113	      7.85569069	     -3.71163229	     -2.46874369	      9.15627842	    -11.57788074	     -7.47883052	     41.49617442	     41.49617442	     13.10344252	    -16.47312920	     -3.53172604	    -10.11433525	      7.21876366	      1.71840582	      8.89192864	    -14.14504860	     -9.52332154	     37.26535246	     45.49664221	      0.00000000	      0.00000000	      8.16327364	    -13.46284995	      0.15064606	     58.03258608	     47.01568598	      0.00000000	      0.00000000
     28.59342857	     -3.56358467	     -4.41930707	     -2.71977678	      1.12406409	      0.92426648	      0.49402412	     19.36545982	      0.72897962	    -11.90423038	     22.15655239	     22.15655239	      8.24221343	     -3.73748491	     -2.74075727	     10.91173682	    -12.12886578	     -6.37405669	     45.17428193	     45.17428193	     11.40927566	    -17.01615651	     -3.66175406	    -10.30045036	      7.29927966	      1.76945301	      9.22205375	    -14.46338703	     -9.50605317	     37.66445965	     45.48530035	      0.00000000	      0.00000000	      7.91167320	    -13.40994953	      0.07005266	     57.31032329	     47.00875823	      0.00000000	      0.00000000
     28.60685714	     -3.54852418	     -4.47433998	     -2.14712397	      1.12418924	      0.92455708	      0.49610928	     18.83808337	      0.79416539	    -12.46975316	     22.01561776	     22.01561776	      8.52452369	     -3.68958405	     -3.07103074	     12.98128512	    -12.54844429	     -5.15908687	     48.75145272	     48.75145272	      9.76111624	    -17.43366083	     -3.45123737	    -10.23413419	      7.38260822	      1.72585418	      9.46669420	    -14.78427567	     -9.46978176	     38.15427646	     45.46899853	      0.00000000	      0.00000000	      7.53440028	    -13.30834613	      0.00930491	     56.29893562	     46.99521754	      0.00000000	      0.00000000
     28.62028571	     -3.54602053	     -4.36630448	     -1.57163249	      1.12408048	      0.92482334	      0.49786177	     18.35716449	      0.62520404	    -13.15057108	     21.88804440	     21.88804440	      8.48204147	     -3.48154179	     -4.50999715	     15.13149943	    -12.58530181	     -3.82594682	     52.23941934	     52.23941934	      9.18668404	    -17.55290230	     -0.39522872	    -10.14694895	      7.31376239	      1.92762713	      9.11554299	    -15.36830635	     -8.84356016	     39.98767447	     45.37891465	      0.00000000	      0.00000000	      8.18257527	    -12.73289728	     -0.46477367	     52.66270930	     46.98017572	      0.00000000	      0.00000000
     28.63371429	     -3.51176339	     -4.42134199	     -1.02951172	      1.12381442	      0.92516472	      0.49965490	     17.75797250	      0.73449040	    -13.61175846	     21.56684279	     21.56684279	      8.46590291	     -3.61317830	     -5.30808616	     17.22742126	    -12.82608015	     -2.66921950	     55.44201679	     55.44201679	      9.02127688	    -17.23322093	      2.93777472	    -10.20616699	      7.36656221	      2.46662678	      8.77789899	    -16.11157859	     -8.45095364	     41.28734520	     45.34087339	      0.00000000	      0.00000000	      8.32379401	    -12.38724238	     -0.40632311	     51.18416640	     46.92631533	      0.00000000	      0.00000000
